<svg width="38" height="113" viewBox="0 0 38 113" fill="none" xmlns="http://www.w3.org/2000/svg">
<path d="M36.7304 49.406L36.235 49.4734L36.7304 49.406ZM0.501857 111.957C0.478078 112.232 0.681826 112.474 0.956943 112.498L5.44023 112.886C5.71534 112.909 5.95765 112.706 5.98143 112.431C6.00521 112.155 5.80146 111.913 5.52634 111.889L1.5412 111.545L1.88566 107.56C1.90944 107.285 1.70569 107.042 1.43057 107.019C1.15545 106.995 0.91315 107.199 0.889371 107.474L0.501857 111.957ZM0.741374 1.42792C1.41543 1.8353 2.1371 2.29343 2.89837 2.80038L3.45265 1.96805C2.68016 1.45363 1.94614 0.987605 1.25863 0.572084L0.741374 1.42792ZM7.06283 5.78303C8.34662 6.76423 9.68578 7.84342 11.0546 9.0142L11.7046 8.25425C10.3217 7.07144 8.96828 5.98073 7.67007 4.98851L7.06283 5.78303ZM14.869 12.4549C16.0792 13.6059 17.2938 14.8205 18.4963 16.0947L19.2235 15.4083C18.0081 14.1205 16.7808 12.8931 15.5581 11.7303L14.869 12.4549ZM21.9106 19.924C22.9997 21.2194 24.0643 22.5632 25.0908 23.952L25.895 23.3576C24.8553 21.951 23.7777 20.5909 22.676 19.2805L21.9106 19.924ZM27.9956 28.1755C28.9102 29.6113 29.776 31.0864 30.5808 32.5977L31.4634 32.1277C30.6457 30.5921 29.7667 29.0946 28.8391 27.6383L27.9956 28.1755ZM32.7897 37.2134C33.4552 38.7805 34.0486 40.3798 34.5578 42.0083L35.5123 41.7099C34.9926 40.0481 34.3877 38.418 33.7101 36.8225L32.7897 37.2134ZM35.817 46.9556C35.9803 47.7885 36.1201 48.6279 36.235 49.4734L37.2259 49.3387C37.1083 48.4735 36.9653 47.6149 36.7983 46.7632L35.817 46.9556ZM36.235 49.4734C36.3522 50.3355 36.4294 51.2047 36.4689 52.0799L37.4679 52.0349C37.4271 51.1307 37.3472 50.2316 37.2259 49.3387L36.235 49.4734ZM36.2767 57.3179C36.0817 59.0321 35.7627 60.7602 35.3342 62.4945L36.305 62.7344C36.7428 60.9622 37.07 59.1917 37.2703 57.431L36.2767 57.3179ZM33.7961 67.5394C33.2073 69.173 32.5348 70.8044 31.7907 72.4271L32.6997 72.8439C33.4544 71.1981 34.1378 69.5407 34.7369 67.8784L33.7961 67.5394ZM29.4145 77.1561C28.5739 78.6977 27.6786 80.2244 26.7397 81.7304L27.5883 82.2594C28.5367 80.7383 29.4419 79.1947 30.2925 77.6348L29.4145 77.1561ZM23.8194 86.1573C22.8054 87.6156 21.7593 89.0467 20.6926 90.4447L21.4876 91.0513C22.5627 89.6424 23.6174 88.1993 24.6404 86.7283L23.8194 86.1573ZM17.3878 94.5985C16.2395 95.985 15.0814 97.3282 13.9266 98.6213L14.6725 99.2874C15.8351 97.9855 17.0014 96.6329 18.158 95.2364L17.3878 94.5985ZM10.3159 102.52C9.03792 103.851 7.78195 105.108 6.56688 106.282L7.26179 107.001C8.48573 105.819 9.75049 104.552 11.0372 103.212L10.3159 102.52ZM2.67321 109.893C1.98196 110.506 1.3154 111.082 0.678206 111.617L1.32179 112.383C1.96606 111.841 2.63928 111.259 3.33677 110.641L2.67321 109.893Z" fill="#885CEC"/>
</svg>
