<svg width="158" height="119" viewBox="0 0 158 119" fill="none" xmlns="http://www.w3.org/2000/svg">
<path d="M74.3333 92.7055L73.5406 93.315L73.5406 93.315L74.3333 92.7055ZM65.6667 29.1642L65.3118 28.2293L65.6667 29.1642ZM20.0149 52.4019C19.9198 52.9459 20.2837 53.4641 20.8277 53.5592L29.6932 55.1096C30.2372 55.2048 30.7554 54.8409 30.8505 54.2968C30.9456 53.7528 30.5817 53.2347 30.0377 53.1395L22.1573 51.7614L23.5355 43.881C23.6306 43.3369 23.2667 42.8188 22.7227 42.7237C22.1787 42.6285 21.6605 42.9924 21.5654 43.5364L20.0149 52.4019ZM130.105 38.0822C123.676 50.9814 113.152 69.1265 102.471 81.6906C97.1155 87.9911 91.8122 92.7764 87.0489 94.862C84.6843 95.8973 82.5209 96.2374 80.5761 95.8359C78.647 95.4377 76.8089 94.2845 75.1261 92.0959L73.5406 93.315C75.4578 95.8085 77.6877 97.2819 80.1718 97.7947C82.6403 98.3042 85.2351 97.8395 87.8511 96.6941C93.0489 94.4182 98.5956 89.3379 103.995 82.9859C114.826 70.2449 125.435 51.9374 131.895 38.9742L130.105 38.0822ZM75.1261 92.0959C70.8286 86.5069 69.5865 79.2973 69.8536 71.6191C70.1206 63.9413 71.8893 55.9423 73.4758 48.8633C74.2653 45.3407 75.0122 42.0331 75.4892 39.1444C75.9632 36.2741 76.1909 33.7096 75.8844 31.6994C75.5731 29.6577 74.6635 27.971 72.7073 27.3C70.8913 26.677 68.4375 27.0427 65.3118 28.2293L66.0216 30.0991C69.0625 28.9447 70.9421 28.8088 72.0583 29.1917C73.0344 29.5266 73.6561 30.3534 73.9073 32.0008C74.1633 33.6798 73.9847 35.9801 73.516 38.8186C73.0503 41.6387 72.3181 44.8838 71.5242 48.4259C69.9441 55.4765 68.1294 63.6555 67.8548 71.5495C67.5802 79.4431 68.8381 87.1992 73.5406 93.315L75.1261 92.0959ZM65.3118 28.2293C45.4821 35.7571 27.1417 47.0389 20.4253 51.7558L21.5747 53.3925C28.1916 48.7455 46.3846 37.5537 66.0216 30.0991L65.3118 28.2293Z" fill="#885CEC"/>
</svg>
