<svg width="150" height="150" viewBox="0 0 150 150" fill="none" xmlns="http://www.w3.org/2000/svg">
<path d="M75 12.5C62.6387 12.5 50.555 16.1656 40.2769 23.0331C29.9988 29.9007 21.988 39.6619 17.2576 51.0823C12.5271 62.5027 11.2894 75.0693 13.7009 87.1931C16.1125 99.317 22.0651 110.453 30.8059 119.194C39.5466 127.935 50.6831 133.888 62.8069 136.299C74.9307 138.711 87.4974 137.473 98.9177 132.742C110.338 128.012 120.099 120.001 126.967 109.723C133.834 99.4451 137.5 87.3613 137.5 75C137.5 66.7924 135.883 58.6651 132.743 51.0823C129.602 43.4994 124.998 36.6095 119.194 30.8058C113.391 25.0022 106.501 20.3984 98.9177 17.2575C91.3349 14.1166 83.2076 12.5 75 12.5V12.5ZM75 125C65.111 125 55.444 122.068 47.2215 116.573C38.9991 111.079 32.5904 103.27 28.8061 94.1342C25.0217 84.9979 24.0315 74.9445 25.9608 65.2455C27.89 55.5464 32.6521 46.6373 39.6447 39.6447C46.6373 32.652 55.5465 27.89 65.2455 25.9607C74.9446 24.0315 84.9979 25.0216 94.1342 28.806C103.271 32.5904 111.079 38.999 116.574 47.2215C122.068 55.4439 125 65.1109 125 75C125 88.2608 119.732 100.979 110.355 110.355C100.979 119.732 88.2609 125 75 125V125Z" fill="white"/>
<path d="M91.9375 58.0625C91.3565 57.4767 90.6652 57.0117 89.9036 56.6944C89.142 56.3771 88.3251 56.2137 87.5 56.2137C86.6749 56.2137 85.858 56.3771 85.0964 56.6944C84.3348 57.0117 83.6435 57.4767 83.0625 58.0625L75 66.1875L66.9375 58.0625C65.7606 56.8856 64.1644 56.2244 62.5 56.2244C60.8356 56.2244 59.2394 56.8856 58.0625 58.0625C56.8856 59.2394 56.2244 60.8356 56.2244 62.5C56.2244 64.1644 56.8856 65.7606 58.0625 66.9375L66.1875 75L58.0625 83.0625C57.4767 83.6435 57.0117 84.3348 56.6944 85.0964C56.3771 85.858 56.2137 86.6749 56.2137 87.5C56.2137 88.3251 56.3771 89.142 56.6944 89.9036C57.0117 90.6652 57.4767 91.3565 58.0625 91.9375C58.6435 92.5233 59.3348 92.9883 60.0964 93.3056C60.858 93.6229 61.6749 93.7862 62.5 93.7862C63.3251 93.7862 64.142 93.6229 64.9036 93.3056C65.6652 92.9883 66.3565 92.5233 66.9375 91.9375L75 83.8125L83.0625 91.9375C83.6435 92.5233 84.3348 92.9883 85.0964 93.3056C85.858 93.6229 86.6749 93.7862 87.5 93.7862C88.3251 93.7862 89.142 93.6229 89.9036 93.3056C90.6652 92.9883 91.3565 92.5233 91.9375 91.9375C92.5233 91.3565 92.9883 90.6652 93.3056 89.9036C93.6229 89.142 93.7862 88.3251 93.7862 87.5C93.7862 86.6749 93.6229 85.858 93.3056 85.0964C92.9883 84.3348 92.5233 83.6435 91.9375 83.0625L83.8125 75L91.9375 66.9375C92.5233 66.3565 92.9883 65.6652 93.3056 64.9036C93.6229 64.142 93.7862 63.3251 93.7862 62.5C93.7862 61.6749 93.6229 60.858 93.3056 60.0964C92.9883 59.3348 92.5233 58.6435 91.9375 58.0625V58.0625Z" fill="white"/>
</svg>
