<svg width="150" height="150" viewBox="0 0 150 150" fill="none" xmlns="http://www.w3.org/2000/svg">
<g filter="url(#filter0_d_15_188)">
<rect x="16" y="18" width="115" height="112" rx="13" fill="#FFFA81"/>
</g>
<path d="M100.815 75.6611L89.0722 70.7875V56.8236C89.0669 56.5307 88.9682 56.2453 88.7879 56.0015C88.6076 55.7577 88.3534 55.5658 88.0556 55.4486L75.3472 50.1778C75.1242 50.0847 74.8814 50.0365 74.6356 50.0365C74.3898 50.0365 74.147 50.0847 73.9239 50.1778L61.2156 55.4486C60.9215 55.5713 60.6725 55.7676 60.4983 56.014C60.3242 56.2604 60.232 56.5467 60.2328 56.8389V70.8028L48.5411 75.6611C48.247 75.7838 47.9981 75.9801 47.8239 76.2265C47.6497 76.4729 47.5576 76.7592 47.5584 77.0514V91.9931C47.5576 92.2853 47.6497 92.5716 47.8239 92.818C47.9981 93.0644 48.247 93.2606 48.5411 93.3833L61.2495 98.6542C61.4725 98.7472 61.7154 98.7955 61.9611 98.7955C62.2069 98.7955 62.4498 98.7472 62.6728 98.6542L74.6695 93.6736L86.6661 98.6542C86.8892 98.7472 87.132 98.7955 87.3778 98.7955C87.6236 98.7955 87.8664 98.7472 88.0895 98.6542L100.798 93.3833C101.092 93.2606 101.341 93.0644 101.515 92.818C101.689 92.5716 101.781 92.2853 101.781 91.9931V77.0514C101.783 76.7608 101.693 76.4757 101.522 76.2295C101.351 75.9832 101.106 75.7861 100.815 75.6611V75.6611ZM87.3947 80.6111L78.7361 77.0514L87.3947 73.4611L96.0534 77.0514L87.3947 80.6111ZM85.7003 70.7722L74.7881 75.3556V63.6069C74.9923 63.5988 75.1932 63.5574 75.3811 63.4847L85.6834 59.2222V70.8028L85.7003 70.7722ZM74.6695 53.2333L83.3281 56.8236L74.6695 60.4139L66.0278 56.8236L74.6695 53.2333ZM61.9611 73.4458L70.6197 77.0361L61.9611 80.6111L53.3025 77.0514L61.9611 73.4458ZM72.975 91L61.9611 95.5833V83.8347C62.1976 83.822 62.4285 83.7648 62.6389 83.6667L72.9411 79.3889L72.975 91ZM98.3917 91L87.4456 95.5833V83.8347C87.6589 83.814 87.8659 83.757 88.0556 83.6667L98.3578 79.3889L98.3917 91Z" fill="black"/>
<defs>
<filter id="filter0_d_15_188" x="15" y="18" width="123" height="120" filterUnits="userSpaceOnUse" color-interpolation-filters="sRGB">
<feFlood flood-opacity="0" result="BackgroundImageFix"/>
<feColorMatrix in="SourceAlpha" type="matrix" values="0 0 0 0 0 0 0 0 0 0 0 0 0 0 0 0 0 0 127 0" result="hardAlpha"/>
<feOffset dx="3" dy="4"/>
<feGaussianBlur stdDeviation="2"/>
<feComposite in2="hardAlpha" operator="out"/>
<feColorMatrix type="matrix" values="0 0 0 0 0.9125 0 0 0 0 0.876 0 0 0 0 0 0 0 0 0.6 0"/>
<feBlend mode="normal" in2="BackgroundImageFix" result="effect1_dropShadow_15_188"/>
<feBlend mode="normal" in="SourceGraphic" in2="effect1_dropShadow_15_188" result="shape"/>
</filter>
</defs>
</svg>
