<svg width="150" height="150" viewBox="0 0 150 150" fill="none" xmlns="http://www.w3.org/2000/svg">
<g filter="url(#filter0_d_15_187)">
<rect x="16" y="18" width="115" height="112" rx="13" fill="#FFA9A9"/>
</g>
<path d="M80.4496 47C85.0817 47.0001 89.6488 48.0688 93.7826 50.1199C97.9163 52.1709 101.501 55.1468 104.247 58.8076C106.993 62.4683 108.824 66.7113 109.591 71.1941C110.359 75.6769 110.042 80.2741 108.666 84.6146C107.29 88.9551 104.894 92.9174 101.67 96.1817C98.4466 99.446 94.4862 101.921 90.1086 103.407C85.731 104.893 81.0588 105.348 76.4689 104.736C71.8791 104.124 67.5001 102.461 63.6855 99.8823H39.6066C38.946 99.8821 38.3101 99.6359 37.8274 99.1933C37.3446 98.7507 37.0511 98.1447 37.0061 97.4979C36.961 96.8511 37.1679 96.2117 37.5848 95.7087C38.0017 95.2058 38.5976 94.877 39.252 94.7886L39.6066 94.7647L57.9213 94.7681C56.5545 93.1914 55.3634 91.4757 54.3682 89.6505L46.5424 89.6471C45.8818 89.6469 45.2459 89.4006 44.7632 88.958C44.2804 88.5154 43.9869 87.9095 43.9419 87.2626C43.8968 86.6158 44.1037 85.9764 44.5206 85.4735C44.9375 84.9705 45.5334 84.6417 46.1878 84.5533L46.5424 84.5294L52.1988 84.5328C51.3343 81.7681 50.896 78.892 50.8986 76C50.8986 68.8421 53.5408 62.2916 57.9178 57.2353H43.0763C42.4156 57.2351 41.7797 56.9888 41.297 56.5462C40.8143 56.1036 40.5207 55.4977 40.4757 54.8509C40.4307 54.2041 40.6375 53.5646 41.0544 53.0617C41.4713 52.5588 42.0672 52.2299 42.7217 52.1416L43.0763 52.1177H63.682C68.6098 48.7761 74.4598 46.9906 80.4496 47V47ZM80.4496 52.1177C73.9953 52.1177 67.8053 54.6338 63.2414 59.1127C58.6775 63.5915 56.1135 69.666 56.1135 76C56.1135 82.334 58.6775 88.4086 63.2414 92.8874C67.8053 97.3662 73.9953 99.8823 80.4496 99.8823C86.9039 99.8823 93.0939 97.3662 97.6578 92.8874C102.222 88.4086 104.786 82.334 104.786 76C104.786 69.666 102.222 63.5915 97.6578 59.1127C93.0939 54.6338 86.9039 52.1177 80.4496 52.1177V52.1177ZM80.46 57.2421C82.9718 57.2421 85.4589 57.7276 87.7794 58.6709C90.0999 59.6142 92.2084 60.9968 93.9845 62.7397C95.7605 64.4826 97.1694 66.5518 98.1306 68.8291C99.0918 71.1063 99.5865 73.5471 99.5865 76.012C99.5865 78.4768 99.0918 80.9176 98.1306 83.1949C97.1694 85.4721 95.7605 87.5413 93.9845 89.2842C92.2084 91.0272 90.0999 92.4097 87.7794 93.353C85.4589 94.2963 82.9718 94.7818 80.46 94.7818C75.3874 94.7818 70.5225 92.8042 66.9356 89.2842C63.3487 85.7642 61.3336 80.99 61.3336 76.012C61.3336 71.0339 63.3487 66.2597 66.9356 62.7397C70.5225 59.2197 75.3874 57.2421 80.46 57.2421V57.2421ZM84.4616 83.5605C83.2622 84.1746 81.8959 84.5226 80.4496 84.5226C79.0173 84.5226 77.6683 84.1814 76.4759 83.5809L72.6655 87.3202C74.8905 88.7975 77.571 89.6641 80.46 89.6641C83.3595 89.6641 86.0504 88.7941 88.2789 87.3066L84.4616 83.5605ZM66.5502 76.0102C66.5502 78.8625 67.4402 81.5134 68.9664 83.7038L72.7663 79.9815C72.103 78.7542 71.7568 77.3859 71.7581 75.9966C71.7581 74.5739 72.1162 73.2331 72.7455 72.056L68.9525 68.3372C67.382 70.6001 66.5447 73.2758 66.5502 76.0137V76.0102ZM91.9849 68.3611L88.1781 72.097C88.7899 73.2638 89.1376 74.591 89.1376 75.9966C89.1376 77.4193 88.783 78.7601 88.1537 79.9372L91.971 83.6833C93.4868 81.4964 94.3699 78.8557 94.3699 76.0102C94.3699 73.1785 93.4903 70.5412 91.9849 68.3611ZM80.4496 72.5883C79.9804 72.5676 79.5119 72.6405 79.0722 72.8025C78.6325 72.9645 78.2309 73.2123 77.8914 73.5308C77.552 73.8493 77.2819 74.232 77.0973 74.6558C76.9127 75.0796 76.8176 75.5357 76.8176 75.9966C76.8176 76.4575 76.9127 76.9136 77.0973 77.3374C77.2819 77.7612 77.552 78.1439 77.8914 78.4624C78.2309 78.7809 78.6325 79.0287 79.0722 79.1907C79.5119 79.3527 79.9804 79.4256 80.4496 79.405C81.3438 79.3657 82.1882 78.9894 82.8068 78.3545C83.4255 77.7196 83.7708 76.875 83.7708 75.9966C83.7708 75.1182 83.4255 74.2736 82.8068 73.6387C82.1882 73.0038 81.3438 72.6275 80.4496 72.5883ZM80.46 62.3598C77.5606 62.3598 74.8697 63.2298 72.6377 64.7173L76.4272 68.4361C77.6301 67.822 78.9999 67.4706 80.4496 67.4706C81.9132 67.4706 83.2935 67.8254 84.5033 68.4532L88.2997 64.731C85.9905 63.1816 83.2573 62.3549 80.46 62.3598V62.3598Z" fill="black"/>
<defs>
<filter id="filter0_d_15_187" x="15" y="18" width="123" height="120" filterUnits="userSpaceOnUse" color-interpolation-filters="sRGB">
<feFlood flood-opacity="0" result="BackgroundImageFix"/>
<feColorMatrix in="SourceAlpha" type="matrix" values="0 0 0 0 0 0 0 0 0 0 0 0 0 0 0 0 0 0 127 0" result="hardAlpha"/>
<feOffset dx="3" dy="4"/>
<feGaussianBlur stdDeviation="2"/>
<feComposite in2="hardAlpha" operator="out"/>
<feColorMatrix type="matrix" values="0 0 0 0 1 0 0 0 0 0.0600001 0 0 0 0 0.0600001 0 0 0 0.25 0"/>
<feBlend mode="normal" in2="BackgroundImageFix" result="effect1_dropShadow_15_187"/>
<feBlend mode="normal" in="SourceGraphic" in2="effect1_dropShadow_15_187" result="shape"/>
</filter>
</defs>
</svg>
