<svg width="46" height="46" viewBox="0 0 46 46" fill="none" xmlns="http://www.w3.org/2000/svg">
<g filter="url(#filter0_d_6_10)">
<circle cx="23" cy="22" r="18" fill="white"/>
</g>
<path d="M17.995 22C17.995 24.761 20.241 27.007 23.002 27.007C25.763 27.007 28.009 24.761 28.009 22C28.009 19.239 25.763 16.993 23.002 16.993C20.241 16.993 17.995 19.239 17.995 22ZM23.002 18.993C24.66 18.993 26.009 20.342 26.009 22C26.009 23.658 24.66 25.007 23.002 25.007C21.344 25.007 19.995 23.658 19.995 22C19.995 20.342 21.344 18.993 23.002 18.993ZM22 29H24V32H22V29ZM22 12H24V15H22V12ZM13 21H16V23H13V21ZM30 21H33V23H30V21ZM15.221 28.363L17.341 26.241L18.756 27.655L16.636 29.777L15.221 28.363ZM27.242 16.344L29.364 14.222L30.778 15.636L28.656 17.758L27.242 16.344ZM17.344 17.759L15.222 15.637L16.637 14.223L18.757 16.345L17.344 17.759ZM30.778 28.364L29.364 29.778L27.242 27.656L28.656 26.242L30.778 28.364Z" fill="#373737"/>
<defs>
<filter id="filter0_d_6_10" x="0" y="0" width="46" height="46" filterUnits="userSpaceOnUse" color-interpolation-filters="sRGB">
<feFlood flood-opacity="0" result="BackgroundImageFix"/>
<feColorMatrix in="SourceAlpha" type="matrix" values="0 0 0 0 0 0 0 0 0 0 0 0 0 0 0 0 0 0 127 0" result="hardAlpha"/>
<feMorphology radius="1" operator="dilate" in="SourceAlpha" result="effect1_dropShadow_6_10"/>
<feOffset dy="1"/>
<feGaussianBlur stdDeviation="2"/>
<feComposite in2="hardAlpha" operator="out"/>
<feColorMatrix type="matrix" values="0 0 0 0 0.0835937 0 0 0 0 0.0835937 0 0 0 0 0.0835937 0 0 0 0.69 0"/>
<feBlend mode="normal" in2="BackgroundImageFix" result="effect1_dropShadow_6_10"/>
<feBlend mode="normal" in="SourceGraphic" in2="effect1_dropShadow_6_10" result="shape"/>
</filter>
</defs>
</svg>
