<svg width="1152" height="4760" viewBox="0 0 1152 4760" fill="none" xmlns="http://www.w3.org/2000/svg">
<path d="M327 2567.6L340.622 2554L344.354 2557.73L334.464 2567.6L340.622 2573.75L346.78 2567.6L349.952 2570.76L343.234 2577.47L351.445 2585.67L362.828 2574.3L366 2577.47L351.445 2592L327 2567.6Z" stroke="#5200FF"/>
<path d="M365 2558H341V2563.11H351.154V2586L352.446 2584.68L355.4 2581.65V2563.11H365V2558Z" stroke="#5200FF"/>
<g clip-path="url(#clip0_3_2)">
<path opacity="0.21" d="M608.663 1099.45H698.481C700.029 1102.67 700.545 1105.89 701.062 1109.12C702.61 1122.01 704.159 1134.9 705.707 1147.79C710.353 1188.08 715.515 1231.6 719.128 1273.5C721.193 1299.28 723.258 1325.07 725.323 1349.24C726.871 1366.97 727.904 1383.09 729.452 1400.81C733.582 1454 740.808 1495.9 752.165 1532.96C755.262 1542.63 758.359 1552.3 761.456 1563.58C766.618 1579.7 771.78 1595.82 776.426 1611.93C790.363 1665.12 798.106 1729.58 800.687 1811.77L801.203 1829.5C802.235 1871.4 803.784 1914.91 806.365 1956.81C812.043 2051.9 816.173 2150.2 818.237 2258.18C818.754 2287.19 820.302 2324.26 824.432 2359.71C830.11 2404.84 839.918 2433.84 853.339 2441.9C856.952 2443.51 860.049 2445.13 863.663 2445.13C874.503 2445.13 884.826 2433.84 894.634 2409.67C908.571 2377.44 918.379 2329.09 925.606 2264.63C931.8 2209.83 932.316 2151.82 932.832 2101.86C933.349 2063.18 933.865 2022.89 935.93 1982.6C940.575 1895.57 953.48 1823.05 974.128 1769.87C981.871 1748.92 990.646 1731.19 998.905 1713.46L1004.58 1700.57C1039.68 1624.83 1035.04 1494.29 1031.43 1442.72C1030.39 1428.21 1027.81 1416.93 1025.23 1405.65C1018 1376.64 1007.68 1368.58 998.389 1365.36C991.162 1362.14 983.419 1362.14 978.257 1362.14C975.16 1362.14 972.579 1362.14 969.482 1362.14C966.385 1362.14 963.804 1362.14 960.707 1362.14C959.158 1362.14 957.61 1362.14 956.061 1362.14C947.802 1362.14 941.091 1358.91 934.381 1354.08C907.023 1331.52 883.278 1283.17 861.598 1205.81C854.887 1181.64 849.209 1149.41 844.047 1109.12C843.015 1102.67 843.015 1099.45 843.531 1097.83H885.859C887.407 1101.06 888.44 1105.89 889.472 1112.34C896.183 1152.63 903.409 1183.25 911.668 1205.81C928.187 1249.32 947.802 1270.28 972.579 1270.28C976.709 1270.28 981.355 1270.28 986 1268.66C998.905 1265.44 1012.33 1262.22 1025.75 1257.38C1034.52 1254.16 1043.3 1250.94 1052.07 1244.49C1059.82 1238.04 1064.46 1223.54 1067.56 1199.37C1070.14 1178.41 1071.69 1154.24 1073.24 1123.62V1118.79C1073.24 1110.73 1073.75 1104.28 1075.3 1099.45H1115.05C1116.6 1102.67 1117.63 1107.5 1118.66 1112.34C1124.86 1139.74 1131.57 1157.46 1139.31 1168.74C1146.54 1178.41 1154.28 1184.86 1161.51 1191.31H1162.02C1164.6 1192.92 1166.67 1194.53 1169.25 1197.75C1178.54 1205.81 1188.35 1213.87 1197.64 1226.76C1211.06 1246.1 1219.32 1267.05 1224.48 1297.67C1233.77 1349.24 1236.87 1407.26 1234.29 1466.89C1230.16 1557.14 1216.74 1621.6 1193.51 1661.89C1173.89 1695.74 1153.76 1715.07 1137.76 1729.58C1134.66 1732.8 1131.57 1734.41 1128.99 1737.64C1118.66 1745.69 1108.34 1755.36 1098.53 1769.87C1080.98 1794.04 1070.14 1837.56 1066.53 1898.8C1064.46 1927.8 1064.46 1958.43 1064.46 1987.43V2003.55C1064.46 2030.95 1066.01 2059.96 1068.59 2093.8C1076.33 2182.44 1093.37 2254.96 1120.73 2312.98C1135.7 2343.6 1151.18 2367.77 1167.18 2391.94C1170.8 2398.39 1174.93 2403.22 1178.54 2409.67C1192.99 2432.23 1207.96 2458.02 1222.42 2490.25C1229.13 2504.75 1235.84 2522.48 1239.97 2546.66V2848.02C1239.45 2848.02 1238.42 2844.8 1237.9 2843.19C1237.39 2841.58 1236.87 2839.97 1236.35 2839.97C1225 2807.73 1215.71 2781.95 1207.45 2757.77C1191.45 2709.43 1177.51 2654.63 1160.99 2590.17C1146.54 2533.76 1134.66 2491.86 1122.28 2454.8C1119.18 2446.74 1116.08 2437.07 1113.5 2429.01C1102.66 2398.39 1091.82 2364.55 1081.5 2330.7C1071.17 2295.25 1061.88 2253.35 1054.14 2203.39C1043.81 2138.92 1039.17 2068.01 1035.55 2006.77L1034.01 1998.71C1032.46 1966.48 1030.39 1934.25 1026.78 1903.63C1023.17 1876.23 1016.46 1860.12 1008.2 1860.12C1006.65 1860.12 1004.58 1860.12 1003.03 1861.73C998.905 1864.95 994.776 1869.79 990.13 1877.85C976.193 1902.02 969.998 1943.92 965.869 1982.6C960.707 2027.72 959.675 2074.46 958.126 2121.2L957.61 2142.15C955.545 2229.17 947.286 2311.36 933.865 2383.89C923.541 2438.68 910.636 2482.19 895.667 2511.2C882.245 2536.99 867.276 2549.88 850.242 2549.88C842.499 2549.88 835.788 2548.27 827.529 2543.43C812.043 2535.38 801.719 2507.98 797.074 2461.24C794.493 2433.84 793.976 2404.84 793.46 2380.66C792.944 2356.49 792.944 2332.31 792.428 2308.14C792.428 2280.74 791.912 2253.35 791.395 2225.95C790.363 2167.93 786.75 2111.53 780.555 2056.73C774.361 2001.94 766.102 1945.53 754.746 1876.23C743.906 1811.77 731.001 1766.65 714.483 1740.86C706.224 1727.97 698.997 1718.3 692.286 1718.3C683.511 1718.3 676.284 1734.41 668.541 1773.09C656.153 1832.72 643.248 1884.29 629.827 1932.64C617.438 1976.15 603.501 2018.05 582.853 2069.62C565.303 2113.14 553.43 2156.65 545.171 2206.61C543.623 2221.11 541.042 2235.62 538.977 2251.73C535.88 2271.07 532.782 2292.02 529.169 2312.98C516.264 2387.11 499.746 2433.84 478.582 2456.41C472.388 2462.85 465.677 2467.69 458.967 2474.13C449.675 2482.19 440.384 2491.86 431.092 2503.14C400.637 2538.6 381.538 2596.62 372.246 2682.03C366.052 2738.44 364.503 2786.78 367.084 2833.52C369.665 2875.42 375.343 2915.71 385.151 2951.17C404.25 3023.69 420.252 3094.6 434.19 3168.73C439.351 3194.52 443.481 3215.47 448.127 3233.19C457.934 3268.65 468.258 3286.38 480.647 3286.38H482.195C499.746 3284.77 515.748 3260.59 532.266 3210.63C545.171 3173.57 552.914 3123.61 560.657 3075.26L561.173 3072.04C572.529 3001.13 586.467 2941.5 602.985 2894.76C619.503 2848.02 636.021 2801.29 652.539 2754.55C661.831 2728.77 671.122 2702.98 680.414 2675.58C699.513 2622.4 718.612 2596.62 739.26 2596.62C740.808 2596.62 742.357 2596.62 743.906 2596.62C758.359 2599.84 768.167 2612.73 775.91 2641.74C781.072 2661.08 785.201 2682.03 789.331 2707.82C791.395 2722.32 793.46 2735.21 795.525 2748.11C802.235 2794.84 809.978 2841.58 818.754 2885.09C828.561 2933.44 838.885 2965.67 850.758 2988.23C861.082 3007.57 871.405 3017.24 881.213 3017.24C887.924 3017.24 894.118 3012.41 900.828 3004.35C907.539 2996.29 913.217 2986.62 918.379 2976.95C921.992 2970.5 925.089 2964.06 928.703 2957.61C936.962 2941.5 945.737 2923.77 955.029 2909.26C968.45 2888.31 981.871 2878.64 995.808 2878.64C1001.49 2878.64 1007.68 2880.26 1013.87 2885.09C1040.2 2901.21 1058.78 2964.06 1063.43 3052.7C1065.49 3084.93 1065.49 3121.99 1063.43 3165.51C1060.85 3239.64 1045.88 3292.82 1024.2 3308.94C1011.81 3317 999.421 3318.61 987.033 3320.22C981.355 3320.22 975.677 3321.83 970.515 3323.44C967.417 3323.44 964.32 3323.44 961.223 3323.44C956.577 3323.44 951.415 3323.44 946.253 3326.67C923.541 3336.34 906.507 3368.57 894.634 3421.75C890.505 3441.09 886.891 3462.04 883.278 3489.44C882.245 3495.88 881.213 3500.72 879.664 3503.94H825.464C824.948 3500.72 824.432 3499.11 824.432 3497.5C824.432 3491.05 823.916 3484.6 823.916 3478.16C823.916 3471.71 823.399 3465.26 823.399 3457.21C823.399 3408.86 823.916 3350.84 827.529 3294.43C829.594 3258.98 827.529 3225.14 821.335 3191.29C815.656 3157.45 809.978 3120.38 804.3 3073.65C802.235 3057.53 800.171 3039.8 798.106 3023.69C792.428 2976.95 786.233 2928.6 779.007 2883.48C771.78 2838.35 765.07 2806.12 757.327 2780.34C748.035 2749.72 737.195 2733.6 724.806 2733.6C724.29 2733.6 723.258 2733.6 722.742 2733.6C711.902 2735.21 701.578 2746.49 691.254 2767.44C676.8 2796.45 663.379 2830.3 649.958 2862.53L641.183 2883.48C628.278 2914.1 616.406 2951.17 605.566 2991.46C593.177 3038.19 585.434 3094.6 578.724 3147.78C567.884 3231.58 552.914 3307.33 531.75 3381.46C523.491 3410.47 514.716 3445.92 511.102 3494.27C510.586 3500.72 510.07 3503.94 508.521 3507.17H446.578C445.546 3503.94 444.513 3500.72 443.997 3495.88C439.351 3455.59 431.092 3421.75 418.704 3392.74L413.542 3379.85C402.702 3354.06 391.345 3326.67 381.538 3296.05C366.568 3249.31 353.147 3197.74 340.242 3136.5C328.886 3081.7 315.981 3039.8 301.012 3004.35C294.301 2988.23 287.591 2968.89 279.848 2943.11C267.459 2902.82 255.587 2857.69 244.23 2814.18C240.617 2799.68 237.004 2786.78 233.39 2772.28C223.066 2731.99 215.323 2696.53 209.645 2659.47C196.224 2567.61 193.127 2469.3 191.579 2385.5C191.062 2329.09 193.127 2269.46 198.805 2198.55C202.419 2153.43 205.516 2103.47 205 2051.9C203.967 1974.54 197.773 1903.63 185.9 1840.78C174.028 1781.15 155.961 1750.53 132.732 1750.53C131.7 1750.53 130.668 1750.53 129.119 1750.53C114.15 1752.14 99.1799 1765.03 84.2103 1790.82C71.8217 1810.16 60.4654 1835.94 47.5606 1866.56C21.7509 1929.42 -7.67213 1969.71 -41.7409 1989.05C-42.2571 1989.05 -42.7733 1989.05 -43.2895 1990.66C-44.3219 1990.66 -45.3543 1992.27 -45.8705 1992.27C-46.3866 1992.27 -46.9028 1992.27 -47.419 1990.66V1823.05C-46.3866 1821.44 -45.8705 1819.83 -45.3543 1819.83C-42.2571 1819.83 -39.6761 1818.22 -37.6114 1818.22C-35.5466 1818.22 -33.4818 1816.6 -31.9332 1816.6C-20.577 1814.99 -9.73691 1810.16 0.0707703 1800.49C12.9756 1789.21 25.3643 1769.87 37.2367 1752.14C41.3663 1745.69 44.9796 1740.86 48.593 1734.41C75.9512 1694.12 101.761 1674.78 127.571 1674.78C134.797 1674.78 142.024 1676.4 149.251 1679.62C171.963 1689.29 189.514 1726.36 201.386 1794.04C211.71 1848.84 218.937 1914.91 224.615 2000.33C228.228 2051.9 228.744 2098.63 226.68 2142.15C225.647 2172.77 223.583 2201.78 221.518 2230.78C220.485 2242.07 219.969 2251.73 218.937 2263.02C213.775 2332.31 212.742 2395.17 215.323 2458.02C221.002 2586.95 240.617 2685.25 274.17 2746.49C282.945 2762.61 291.204 2770.67 298.431 2770.67C309.787 2770.67 319.595 2751.33 328.886 2714.26C335.597 2688.48 340.758 2659.47 345.92 2632.07C347.985 2622.4 350.05 2611.12 351.599 2601.45C365.536 2530.54 385.151 2475.75 409.412 2438.68C419.736 2424.18 430.06 2411.28 439.868 2398.39C446.062 2390.33 451.74 2383.89 457.934 2375.83C486.325 2337.15 501.811 2274.3 506.457 2180.82C508.521 2137.31 509.554 2092.19 509.038 2047.06C509.038 2030.95 509.554 2013.22 511.102 1997.1C513.683 1964.87 519.878 1947.14 529.685 1942.31C533.815 1939.09 538.461 1939.09 542.59 1939.09H544.655H546.72H548.268C565.303 1939.09 581.305 1914.91 592.661 1873.01C605.05 1826.27 610.728 1765.03 607.63 1703.79C604.017 1629.66 595.242 1561.97 586.983 1502.34C585.434 1491.06 583.886 1479.78 582.337 1468.5C577.175 1429.82 571.497 1391.14 567.884 1349.24C562.206 1289.61 563.754 1242.88 573.046 1200.98C578.207 1176.8 584.918 1157.46 591.112 1139.74C592.661 1134.9 594.726 1130.07 596.274 1125.23C600.404 1115.56 604.017 1104.28 608.663 1099.45ZM608.663 1093C600.92 1099.45 596.274 1122.01 590.596 1136.51C583.886 1154.24 577.175 1173.58 572.013 1197.75C561.689 1246.1 561.689 1297.67 566.851 1350.85C572.013 1404.04 579.24 1452.39 585.95 1503.96C594.209 1568.42 602.985 1634.49 606.082 1705.41C611.76 1824.66 584.402 1932.64 548.784 1932.64C548.268 1932.64 547.752 1932.64 547.236 1932.64C545.687 1932.64 544.139 1932.64 542.59 1932.64C537.944 1932.64 533.815 1932.64 529.685 1935.86C518.845 1942.31 512.651 1961.65 509.554 1995.49C508.005 2011.61 507.489 2029.34 507.489 2047.06C507.489 2092.19 506.973 2135.7 504.908 2180.82C500.262 2275.91 483.744 2335.54 457.418 2370.99C440.9 2391.94 424.382 2409.67 408.896 2433.84C384.635 2469.3 365.02 2524.09 350.05 2598.23C342.823 2635.29 335.597 2675.58 327.337 2711.04C318.562 2748.11 309.271 2765.83 298.947 2765.83C291.72 2765.83 283.977 2757.77 275.718 2743.27C242.166 2680.42 223.066 2583.72 217.388 2458.02C214.807 2391.94 216.356 2329.09 221.002 2264.63C224.099 2224.34 227.196 2184.05 229.261 2143.76C231.325 2095.41 230.293 2047.06 227.196 2000.33C222.034 1926.19 215.84 1855.28 203.967 1790.82C191.579 1724.74 173.512 1684.45 150.283 1674.78C142.54 1671.56 135.313 1669.95 128.087 1669.95C100.729 1669.95 73.8864 1692.51 48.0768 1729.58C32.0748 1752.14 16.589 1779.54 -0.445423 1794.04C-10.7693 1803.71 -21.6094 1808.55 -31.9332 1810.16C-36.579 1810.16 -40.7085 1813.38 -45.3543 1813.38C-45.3543 1813.38 -45.3543 1813.38 -45.8705 1813.38C-47.419 1813.38 -48.9676 1816.6 -50 1819.83C-50 1877.85 -50 1935.86 -50 1993.88C-48.9676 1997.1 -47.419 1998.71 -46.3866 1998.71C-44.8381 1998.71 -43.2895 1997.1 -41.7409 1995.49C-8.70452 1976.15 21.7509 1937.47 49.1092 1871.4C60.4654 1844 72.3379 1816.6 85.2427 1795.65C99.1799 1773.09 114.15 1756.98 129.635 1755.36C130.668 1755.36 131.7 1755.36 133.249 1755.36C154.413 1755.36 171.963 1781.15 184.352 1844C196.224 1906.85 202.419 1977.76 202.935 2051.9C203.451 2101.86 200.354 2148.59 196.741 2195.33C191.579 2258.18 188.481 2321.03 189.514 2385.5C191.062 2480.58 194.676 2574.05 208.097 2659.47C214.291 2701.37 223.066 2738.44 231.842 2773.89C247.327 2831.91 261.781 2891.54 278.299 2944.72C285.01 2967.28 292.236 2988.23 299.979 3005.96C315.465 3041.41 327.854 3084.93 338.694 3136.5C351.082 3194.52 364.503 3247.7 380.505 3297.66C391.862 3333.11 404.766 3363.73 417.671 3394.35C428.511 3420.14 437.287 3452.37 442.449 3494.27C443.481 3500.72 445.03 3505.55 446.578 3510.39C467.742 3510.39 488.906 3510.39 510.07 3510.39C512.135 3505.55 513.167 3500.72 513.683 3492.66C517.297 3449.15 525.04 3413.69 533.815 3383.07C553.43 3313.77 569.948 3236.42 581.305 3147.78C588.531 3092.99 596.274 3038.19 608.147 2993.07C618.471 2952.78 630.343 2917.32 643.248 2886.7C659.766 2846.41 675.768 2806.12 693.319 2770.67C702.61 2751.33 712.934 2740.05 723.774 2738.44C724.29 2738.44 725.323 2738.44 725.839 2738.44C737.711 2738.44 748.551 2754.55 756.81 2783.56C765.586 2812.57 772.296 2848.02 778.491 2885.09C788.298 2946.33 795.525 3010.79 803.784 3075.26C808.946 3115.55 814.624 3155.84 821.335 3194.52C827.013 3225.14 829.078 3257.37 827.013 3294.43C823.916 3349.23 823.399 3404.02 822.883 3458.82C822.883 3473.32 823.916 3486.21 823.916 3499.11C823.916 3505.55 824.948 3508.78 825.98 3512C844.563 3512 863.146 3512 881.729 3512C884.31 3508.78 885.343 3502.33 886.375 3494.27C889.472 3471.71 893.086 3447.54 897.731 3428.2C910.12 3371.79 927.671 3344.39 947.802 3334.72C955.545 3331.5 963.804 3333.11 972.063 3331.5C990.13 3326.67 1008.2 3329.89 1026.26 3317C1048.46 3300.88 1064.46 3247.7 1067.04 3168.73C1068.59 3130.05 1069.11 3091.37 1067.04 3052.7C1061.88 2962.45 1043.3 2896.37 1015.94 2878.64C1009.75 2873.81 1003.55 2872.2 997.873 2872.2C983.419 2872.2 969.998 2883.48 956.577 2904.43C943.672 2923.77 932.316 2949.55 919.928 2972.12C914.249 2983.4 908.571 2991.46 902.377 2999.51C896.183 3007.57 889.988 3012.41 883.794 3012.41C873.47 3012.41 864.179 3002.74 854.371 2983.4C841.466 2959.22 831.658 2923.77 822.883 2883.48C811.527 2827.07 802.752 2765.83 793.46 2706.2C789.847 2682.03 785.201 2659.47 779.523 2638.52C770.231 2604.67 758.875 2593.39 745.97 2591.78C744.422 2591.78 742.873 2591.78 740.808 2591.78C717.58 2591.78 697.964 2624.01 680.414 2672.36C654.604 2744.88 628.794 2817.4 602.985 2889.93C585.434 2939.88 571.497 3001.13 560.657 3068.81C552.914 3118.77 544.655 3168.73 532.266 3205.8C518.329 3247.7 502.843 3278.32 483.744 3279.93C483.228 3279.93 482.712 3279.93 482.195 3279.93C469.807 3279.93 459.483 3260.59 451.224 3229.97C444.513 3209.02 440.384 3188.07 436.254 3165.51C421.801 3088.15 404.766 3015.63 386.7 2947.94C377.924 2914.1 371.73 2877.03 369.149 2833.52C366.568 2781.95 369.149 2733.6 374.311 2685.25C384.635 2593.39 405.283 2541.82 431.609 2509.59C447.611 2490.25 463.613 2478.97 479.615 2461.24C502.843 2435.46 519.361 2383.89 531.234 2314.59C537.428 2280.74 542.074 2243.68 547.752 2208.22C556.527 2153.43 569.948 2111.53 584.918 2074.46C601.436 2032.56 617.954 1987.43 631.892 1935.86C645.829 1885.9 658.734 1831.11 670.606 1774.7C678.349 1737.64 685.06 1723.13 692.802 1723.13C698.997 1723.13 705.707 1731.19 713.966 1745.69C732.033 1774.7 743.906 1821.44 753.197 1879.46C763.005 1937.47 771.78 1995.49 779.007 2058.34C785.201 2113.14 788.814 2167.93 789.847 2225.95C790.879 2277.52 790.879 2329.09 791.912 2380.66C792.428 2408.06 793.46 2435.46 796.041 2462.85C800.171 2516.04 812.043 2543.43 827.529 2549.88C834.756 2553.1 842.499 2556.33 849.725 2556.33C865.727 2556.33 881.729 2545.04 896.183 2517.65C912.701 2485.42 925.09 2441.9 935.413 2388.72C949.351 2314.59 957.093 2232.4 959.674 2145.37C961.223 2092.19 961.739 2039 967.934 1987.43C972.579 1945.53 978.774 1908.47 991.162 1885.9C995.292 1879.46 998.905 1873.01 1003.55 1869.79C1005.1 1868.18 1006.65 1868.18 1008.2 1868.18C1015.94 1868.18 1021.62 1881.07 1024.71 1906.85C1028.84 1939.09 1030.39 1974.54 1032.46 2008.38C1036.07 2077.68 1040.72 2145.37 1051.04 2206.61C1058.78 2253.35 1067.56 2296.86 1078.92 2333.93C1091.82 2379.05 1106.27 2417.73 1120.21 2458.02C1134.15 2498.31 1146.54 2545.04 1158.41 2591.78C1172.86 2651.41 1188.35 2709.43 1204.87 2761C1214.16 2790.01 1223.97 2817.4 1233.77 2844.8C1235.32 2848.02 1236.87 2856.08 1238.94 2856.08C1239.45 2856.08 1239.97 2856.08 1241 2854.47C1241 2751.33 1241 2648.19 1241 2546.66C1236.35 2520.87 1229.64 2503.14 1222.42 2487.03C1208.48 2454.8 1193.51 2429.01 1178.54 2404.84C1158.93 2374.22 1139.31 2346.82 1121.24 2308.14C1096.47 2256.57 1077.88 2188.88 1069.62 2093.8C1067.04 2064.79 1065.49 2035.78 1065.49 2005.16C1065.49 1971.32 1064.98 1935.86 1067.56 1902.02C1071.17 1840.78 1081.5 1800.49 1098.53 1776.32C1110.4 1758.59 1123.82 1748.92 1137.25 1737.64C1156.34 1719.91 1175.44 1698.96 1193.51 1668.34C1218.29 1626.44 1231.19 1558.75 1235.32 1470.11C1237.9 1408.87 1234.81 1350.85 1225.51 1296.06C1219.32 1258.99 1209 1238.04 1197.64 1221.93C1186.28 1205.81 1173.89 1197.75 1162.02 1186.47C1154.28 1180.03 1147.05 1173.58 1139.31 1163.91C1131.05 1152.63 1124.86 1133.29 1119.69 1110.73C1118.15 1104.28 1116.6 1097.83 1114.53 1093C1100.6 1093 1086.66 1093 1073.24 1093C1070.66 1101.06 1070.66 1112.34 1070.14 1123.62C1069.11 1149.41 1067.56 1173.58 1064.98 1197.75C1062.4 1220.32 1057.75 1233.21 1051.04 1238.04C1042.27 1246.1 1034.01 1247.71 1025.23 1250.94C1011.81 1255.77 998.389 1258.99 985.484 1262.22C981.355 1263.83 976.709 1263.83 972.579 1263.83C950.899 1263.83 930.768 1249.32 912.701 1200.98C903.409 1175.19 896.699 1144.57 891.021 1109.12C888.956 1104.28 887.924 1097.83 885.343 1093C870.889 1093 856.436 1093 841.982 1093C839.918 1099.45 840.434 1105.89 841.466 1112.34C845.596 1147.79 851.274 1183.25 859.017 1212.26C879.665 1284.78 903.409 1337.96 932.832 1362.14C940.059 1368.58 947.286 1370.19 955.029 1370.19C956.577 1370.19 958.126 1370.19 959.674 1370.19C965.353 1370.19 971.547 1370.19 977.225 1370.19C983.936 1370.19 990.646 1370.19 997.357 1373.42C1007.16 1378.25 1016.46 1384.7 1023.17 1412.1C1025.75 1421.76 1027.81 1433.05 1028.84 1445.94C1035.04 1532.96 1030.91 1636.11 1003.03 1697.35C992.711 1719.91 982.387 1740.86 972.579 1766.65C950.899 1821.44 938.511 1895.57 933.349 1984.21C931.284 2024.5 930.768 2064.79 930.251 2105.08C929.735 2159.87 928.703 2214.67 923.025 2266.24C916.83 2322.64 908.055 2372.6 893.086 2408.06C883.794 2430.62 873.986 2441.9 863.146 2441.9C860.049 2441.9 856.436 2440.29 853.339 2438.68C839.918 2429.01 831.142 2400 825.98 2359.71C821.851 2327.48 820.302 2293.64 819.786 2259.79C817.721 2158.26 814.108 2058.34 807.914 1956.81C805.333 1908.47 803.784 1860.12 802.752 1811.77C800.687 1736.03 793.46 1666.73 777.974 1608.71C770.232 1581.31 761.972 1555.53 753.713 1529.74C742.873 1492.67 735.647 1450.77 731.517 1400.81C727.904 1358.91 725.323 1315.4 721.709 1273.5C716.547 1217.09 709.837 1163.91 703.643 1107.5C702.61 1101.06 701.062 1096.22 698.997 1093C669.058 1093 638.602 1093 608.663 1093Z" fill="#5200FF"/>
<path opacity="0.21" d="M524.663 -1.78281H614.481C616.029 -0.674217 616.545 0.434377 617.062 1.54297C618.61 5.97735 620.159 10.4117 621.707 14.8461C626.353 28.7035 631.515 43.6696 635.128 58.0813C637.193 66.95 639.258 75.8188 641.323 84.1332C642.871 90.2305 643.904 95.7735 645.452 101.871C649.582 120.163 656.808 134.574 668.165 147.323C671.262 150.649 674.359 153.975 677.456 157.855C682.618 163.398 687.78 168.941 692.426 174.484C706.363 192.775 714.106 214.947 716.687 243.217L717.203 249.314C718.235 263.726 719.784 278.692 722.365 293.103C728.043 325.807 732.173 359.619 734.237 396.757C734.754 406.734 736.302 419.483 740.432 431.678C746.11 447.198 755.918 457.175 769.339 459.947C772.952 460.501 776.049 461.055 779.663 461.055C790.503 461.055 800.826 457.175 810.634 448.861C824.571 437.775 834.379 421.146 841.606 398.974C847.8 380.128 848.316 360.173 848.832 342.99C849.349 329.687 849.865 315.829 851.93 301.972C856.575 272.04 869.48 247.097 890.128 228.805C897.871 221.599 906.646 215.502 914.905 209.404L920.583 204.97C955.685 178.918 951.039 134.02 947.425 116.282C946.393 111.294 943.812 107.414 941.231 103.534C934.004 93.5563 923.681 90.7848 914.389 89.6762C907.162 88.5676 899.419 88.5676 894.257 88.5676C891.16 88.5676 888.579 88.5676 885.482 88.5676C882.385 88.5676 879.804 88.5676 876.707 88.5676C875.158 88.5676 873.61 88.5676 872.061 88.5676C863.802 88.5676 857.091 87.459 850.381 85.7961C823.023 78.036 799.278 61.4071 777.598 34.8008C770.887 26.4863 765.209 15.4004 760.047 1.54297C759.015 -0.674217 759.015 -1.78281 759.531 -2.33711H801.859C803.407 -1.22851 804.44 0.434377 805.472 2.65157C812.183 16.509 819.409 27.0406 827.668 34.8008C844.187 49.7668 863.802 56.9727 888.579 56.9727C892.709 56.9727 897.355 56.9727 902 56.4184C914.905 55.3098 928.326 54.2012 941.747 52.5383C950.523 51.4297 959.298 50.3211 968.073 48.1039C975.816 45.8867 980.462 40.8981 983.559 32.5836C986.14 25.3778 987.688 17.0633 989.237 6.53165V4.86875C989.237 2.09727 989.753 -0.11992 991.302 -1.78281H1031.05C1032.6 -0.674217 1033.63 0.988674 1034.66 2.65157C1040.86 12.0746 1047.57 18.1719 1055.31 22.052C1062.54 25.3777 1070.28 27.5949 1077.51 29.8121H1078.02C1080.6 30.3664 1082.67 30.9207 1085.25 32.0293C1094.54 34.8008 1104.35 37.5723 1113.64 42.0067C1127.06 48.6582 1135.32 55.8641 1140.48 66.3957C1149.77 84.1332 1152.87 104.088 1150.29 124.597C1146.16 155.638 1132.74 177.809 1109.51 191.667C1089.89 203.307 1069.76 209.959 1053.76 214.947C1050.66 216.056 1047.57 216.61 1044.99 217.719C1034.66 220.49 1024.34 223.816 1014.53 228.805C996.98 237.119 986.14 252.085 982.526 273.149C980.462 283.126 980.462 293.658 980.462 303.635V309.178C980.462 318.601 982.01 328.578 984.591 340.219C992.334 370.705 1009.37 395.648 1036.73 415.603C1051.7 426.135 1067.18 434.449 1083.18 442.764C1086.8 444.981 1090.93 446.644 1094.54 448.861C1108.99 456.621 1123.96 465.49 1138.42 476.576C1145.13 481.564 1151.84 487.662 1155.97 495.976V599.63C1155.45 599.63 1154.42 598.521 1153.9 597.967C1153.39 597.412 1152.87 596.858 1152.35 596.858C1141 585.772 1131.71 576.903 1123.45 568.589C1107.45 551.96 1093.51 533.114 1076.99 510.942C1062.54 491.542 1050.66 477.13 1038.28 464.381C1035.18 461.61 1032.08 458.284 1029.5 455.512C1018.66 444.981 1007.82 433.34 997.496 421.7C987.172 409.506 977.881 395.094 970.138 377.911C959.814 355.739 955.168 331.35 951.555 310.286L950.006 307.515C948.458 296.429 946.393 285.343 942.78 274.811C939.166 265.388 932.456 259.845 924.197 259.845C922.648 259.845 920.583 259.845 919.035 260.4C914.905 261.508 910.776 263.171 906.13 265.943C892.193 274.257 885.998 288.669 881.869 301.972C876.707 317.492 875.675 333.567 874.126 349.642L873.61 356.847C871.545 386.779 863.286 415.049 849.865 439.992C839.541 458.838 826.636 473.804 811.667 483.781C798.245 492.65 783.276 497.085 766.242 497.085C758.499 497.085 751.788 496.53 743.529 494.867C728.043 492.096 717.719 482.673 713.074 466.598C710.493 457.175 709.976 447.198 709.46 438.883C708.944 430.569 708.944 422.254 708.428 413.94C708.428 404.517 707.912 395.094 707.395 385.671C706.363 365.716 702.75 346.316 696.555 327.47C690.361 308.624 682.102 289.223 670.746 265.388C659.906 243.217 647.001 227.696 630.483 218.827C622.224 214.393 614.997 211.067 608.286 211.067C599.511 211.067 592.284 216.61 584.541 229.913C572.153 250.422 559.248 268.16 545.827 284.789C533.438 299.755 519.501 314.167 498.853 331.904C481.303 346.87 469.43 361.836 461.171 379.019C459.623 384.008 457.042 388.997 454.977 394.54C451.88 401.191 448.782 408.397 445.169 415.603C432.264 441.101 415.746 457.175 394.582 464.935C388.388 467.153 381.677 468.815 374.967 471.033C365.675 473.804 356.384 477.13 347.092 481.01C316.637 493.205 297.538 513.159 288.246 542.537C282.052 561.937 280.503 578.566 283.084 594.641C285.665 609.053 291.343 622.91 301.151 635.105C320.25 660.048 336.252 684.437 350.19 709.935C355.351 718.804 359.481 726.009 364.127 732.107C373.934 744.301 384.258 750.398 396.647 750.398H398.195C415.746 749.844 431.748 741.53 448.266 724.346C461.171 711.598 468.914 694.414 476.657 677.786L477.173 676.677C488.529 652.288 502.467 631.779 518.985 615.704C535.503 599.63 552.021 583.555 568.539 567.48C577.831 558.612 587.122 549.743 596.414 540.32C615.513 522.028 634.612 513.159 655.26 513.159C656.808 513.159 658.357 513.159 659.906 513.159C674.359 514.268 684.167 518.702 691.91 528.68C697.072 535.331 701.201 542.537 705.331 551.406C707.395 556.394 709.46 560.829 711.525 565.263C718.235 581.338 725.978 597.412 734.754 612.378C744.561 629.007 754.885 640.093 766.758 647.853C777.082 654.505 787.405 657.831 797.213 657.831C803.924 657.831 810.118 656.168 816.828 653.396C823.539 650.625 829.217 647.299 834.379 643.973C837.992 641.756 841.089 639.539 844.703 637.322C852.962 631.779 861.737 625.682 871.029 620.693C884.45 613.487 897.871 610.161 911.808 610.161C917.486 610.161 923.681 610.716 929.875 612.378C956.201 617.921 974.784 639.539 979.429 670.025C981.494 681.111 981.494 693.86 979.429 708.826C976.848 734.324 961.879 752.616 940.199 758.159C927.81 760.93 915.421 761.484 903.033 762.039C897.355 762.039 891.677 762.593 886.515 763.147C883.417 763.147 880.32 763.147 877.223 763.147C872.577 763.147 867.415 763.147 862.253 764.256C839.541 767.582 822.507 778.668 810.634 796.959C806.505 803.611 802.891 810.817 799.278 820.24C798.245 822.457 797.213 824.12 795.664 825.229H741.464C740.948 824.12 740.432 823.566 740.432 823.011C740.432 820.794 739.916 818.577 739.916 816.36C739.916 814.143 739.399 811.925 739.399 809.154C739.399 792.525 739.916 772.57 743.529 753.17C745.594 740.975 743.529 729.335 737.335 717.695C731.656 706.055 725.978 693.306 720.3 677.231C718.235 671.688 716.171 665.591 714.106 660.048C708.428 643.973 702.233 627.344 695.007 611.824C687.78 596.304 681.07 585.218 673.327 576.349C664.035 565.817 653.195 560.275 640.806 560.275C640.29 560.275 639.258 560.275 638.742 560.275C627.902 560.829 617.578 564.709 607.254 571.915C592.8 581.892 579.379 593.532 565.958 604.618L557.183 611.824C544.278 622.356 532.406 635.105 521.566 648.962C509.177 665.037 501.434 684.437 494.724 702.729C483.884 731.552 468.914 757.604 447.75 783.102C439.491 793.079 430.716 805.274 427.102 821.903C426.586 824.12 426.07 825.229 424.521 826.337H362.578C361.546 825.229 360.513 824.12 359.997 822.457C355.351 808.6 347.092 796.959 334.704 786.982L329.542 782.548C318.702 773.679 307.345 764.256 297.538 753.724C282.568 737.65 269.147 719.912 256.242 698.849C244.886 680.003 231.981 665.591 217.012 653.396C210.301 647.853 203.591 641.202 195.848 632.333C183.459 618.476 171.587 602.955 160.23 587.989C156.617 583.001 153.004 578.566 149.39 573.578C139.066 559.72 131.323 547.526 125.645 534.777C112.224 503.182 109.127 469.37 107.579 440.546C107.062 421.146 109.127 400.637 114.805 376.248C118.419 360.728 121.516 343.544 121 325.807C119.967 299.201 113.773 274.811 101.9 253.194C90.028 232.685 71.9612 222.153 48.7325 222.153C47.7001 222.153 46.6677 222.153 45.1191 222.153C30.1495 222.708 15.1799 227.142 0.210312 236.011C-12.1783 242.662 -23.5346 251.531 -36.4394 262.063C-62.2491 283.68 -91.6721 297.538 -125.741 304.189C-126.257 304.189 -126.773 304.189 -127.289 304.744C-128.322 304.744 -129.354 305.298 -129.87 305.298C-130.387 305.298 -130.903 305.298 -131.419 304.744V247.097C-130.387 246.542 -129.87 245.988 -129.354 245.988C-126.257 245.988 -123.676 245.434 -121.611 245.434C-119.547 245.434 -117.482 244.879 -115.933 244.879C-104.577 244.325 -93.7369 242.662 -83.9292 239.336C-71.0244 235.456 -58.6357 228.805 -46.7633 222.708C-42.6337 220.49 -39.0204 218.827 -35.407 216.61C-8.04879 202.753 17.7609 196.101 43.5706 196.101C50.7973 196.101 58.024 196.656 65.2507 197.764C87.9632 201.09 105.514 213.839 117.386 237.119C127.71 255.965 134.937 278.692 140.615 308.069C144.228 325.807 144.744 341.881 142.68 356.847C141.647 367.379 139.583 377.356 137.518 387.334C136.485 391.214 135.969 394.54 134.937 398.42C129.775 422.255 128.742 443.872 131.323 465.49C137.002 509.833 156.617 543.646 190.17 564.709C198.945 570.252 207.204 573.023 214.431 573.023C225.787 573.023 235.595 566.372 244.886 553.623C251.597 544.754 256.758 534.777 261.92 525.354C263.985 522.028 266.05 518.148 267.599 514.822C281.536 490.433 301.151 471.587 325.412 458.838C335.736 453.849 346.06 449.415 355.868 444.981C362.062 442.209 367.74 439.992 373.934 437.221C402.325 423.917 417.811 402.3 422.457 370.151C424.521 355.185 425.554 339.664 425.038 324.144C425.038 318.601 425.554 312.504 427.102 306.961C429.683 295.875 435.878 289.777 445.685 288.115C449.815 287.006 454.461 287.006 458.59 287.006H460.655H462.72H464.268C481.303 287.006 497.305 278.692 508.661 264.28C521.05 248.205 526.728 227.142 523.63 206.079C520.017 180.581 511.242 157.3 502.983 136.791C501.434 132.911 499.886 129.031 498.337 125.151C493.175 111.848 487.497 98.545 483.884 84.1332C478.206 63.6243 479.754 47.5496 489.046 33.1379C494.207 24.8235 500.918 18.1719 507.112 12.0746C508.661 10.4117 510.726 8.74883 512.274 7.08594C516.404 3.76016 520.017 -0.11992 524.663 -1.78281ZM524.663 -4C516.92 -1.78281 512.274 5.97735 506.596 10.966C499.886 17.0633 493.175 23.7149 488.013 32.0293C477.689 48.6582 477.689 66.3957 482.851 84.6875C488.013 102.979 495.24 119.608 501.95 137.346C510.209 159.518 518.985 182.244 522.082 206.633C527.76 247.651 500.402 284.789 464.784 284.789C464.268 284.789 463.752 284.789 463.236 284.789C461.687 284.789 460.139 284.789 458.59 284.789C453.944 284.789 449.815 284.789 445.685 285.897C434.845 288.115 428.651 294.766 425.554 306.406C424.005 311.949 423.489 318.047 423.489 324.144C423.489 339.664 422.973 354.63 420.908 370.151C416.262 402.854 399.744 423.363 373.418 435.558C356.9 442.763 340.382 448.861 324.896 457.175C300.635 469.37 281.02 488.216 266.05 513.714C258.823 526.462 251.597 540.32 243.337 552.514C234.562 565.263 225.271 571.36 214.947 571.36C207.72 571.36 199.977 568.589 191.718 563.6C158.166 541.983 139.066 508.725 133.388 465.49C130.807 442.764 132.356 421.146 137.002 398.974C140.099 385.117 143.196 371.259 145.261 357.402C147.325 340.773 146.293 324.144 143.196 308.069C138.034 282.572 131.84 258.183 119.967 236.011C107.579 213.284 89.5118 199.427 66.2831 196.101C58.5402 194.993 51.3135 194.438 44.0868 194.438C16.7285 194.438 -10.1136 202.199 -35.9232 214.947C-51.9252 222.708 -67.411 232.131 -84.4454 237.119C-94.7693 240.445 -105.609 242.108 -115.933 242.662C-120.579 242.662 -124.709 243.771 -129.354 243.771C-129.354 243.771 -129.354 243.771 -129.87 243.771C-131.419 243.771 -132.968 244.879 -134 245.988C-134 265.943 -134 285.897 -134 305.852C-132.968 306.961 -131.419 307.515 -130.387 307.515C-128.838 307.515 -127.289 306.961 -125.741 306.406C-92.7045 299.755 -62.2491 286.452 -34.8908 263.726C-23.5346 254.302 -11.6621 244.879 1.24269 237.674C15.1799 229.913 30.1495 224.37 45.6353 223.816C46.6677 223.816 47.7001 223.816 49.2487 223.816C70.4126 223.816 87.9632 232.685 100.352 254.302C112.224 275.92 118.419 300.309 118.935 325.807C119.451 342.99 116.354 359.065 112.741 375.139C107.579 396.757 104.481 418.374 105.514 440.546C107.062 473.25 110.676 505.399 124.097 534.777C130.291 549.189 139.066 561.937 147.842 574.132C163.327 594.087 177.781 614.596 194.299 632.887C201.01 640.648 208.236 647.853 215.979 653.951C231.465 666.145 243.854 681.111 254.694 698.849C267.082 718.804 280.503 737.095 296.505 754.279C307.862 766.473 320.766 777.005 333.671 787.536C344.511 796.405 353.287 807.491 358.449 821.903C359.481 824.12 361.03 825.783 362.578 827.446C383.742 827.446 404.906 827.446 426.07 827.446C428.135 825.783 429.167 824.12 429.683 821.348C433.297 806.382 441.04 794.188 449.815 783.656C469.43 759.821 485.948 733.215 497.305 702.729C504.531 683.883 512.274 665.037 524.147 649.516C534.471 635.659 546.343 623.464 559.248 612.933C575.766 599.075 591.768 585.218 609.319 573.023C618.61 566.372 628.934 562.492 639.774 561.937C640.29 561.937 641.323 561.937 641.839 561.937C653.711 561.937 664.551 567.48 672.81 577.458C681.586 587.435 688.296 599.63 694.491 612.378C704.298 633.442 711.525 655.614 719.784 677.786C724.946 691.643 730.624 705.5 737.335 718.803C743.013 729.335 745.078 740.421 743.013 753.17C739.916 772.016 739.399 790.862 738.883 809.708C738.883 814.697 739.916 819.131 739.916 823.566C739.916 825.783 740.948 826.891 741.98 828C760.563 828 779.146 828 797.729 828C800.31 826.891 801.343 824.674 802.375 821.903C805.472 814.143 809.086 805.828 813.731 799.177C826.12 779.776 843.671 770.353 863.802 767.027C871.545 765.919 879.804 766.473 888.063 765.919C906.13 764.256 924.197 765.364 942.263 760.93C964.46 755.387 980.462 737.095 983.043 709.935C984.591 696.632 985.107 683.328 983.043 670.025C977.881 638.985 959.298 616.259 931.94 610.161C925.745 608.498 919.551 607.944 913.873 607.944C899.419 607.944 885.998 611.824 872.577 619.03C859.672 625.682 848.316 634.55 835.928 642.31C830.249 646.191 824.571 648.962 818.377 651.734C812.183 654.505 805.988 656.168 799.794 656.168C789.47 656.168 780.179 652.842 770.371 646.191C757.466 637.876 747.658 625.682 738.883 611.824C727.527 592.424 718.752 571.36 709.46 550.851C705.847 542.537 701.201 534.777 695.523 527.571C686.231 515.931 674.875 512.051 661.97 511.496C660.422 511.496 658.873 511.496 656.808 511.496C633.58 511.496 613.964 522.582 596.414 539.211C570.604 564.155 544.794 589.098 518.985 614.041C501.434 631.225 487.497 652.288 476.657 675.568C468.914 692.752 460.655 709.935 448.266 722.684C434.329 737.095 418.843 747.627 399.744 748.181C399.228 748.181 398.712 748.181 398.195 748.181C385.807 748.181 375.483 741.53 367.224 730.998C360.513 723.792 356.384 716.586 352.254 708.826C337.801 682.22 320.766 657.277 302.7 633.996C293.924 622.356 287.73 609.607 285.149 594.641C282.568 576.903 285.149 560.274 290.311 543.646C300.635 512.051 321.283 494.313 347.609 483.227C363.611 476.576 379.613 472.696 395.615 466.598C418.843 457.73 435.361 439.992 447.234 416.157C453.428 404.517 458.074 391.768 463.752 379.574C472.527 360.728 485.948 346.316 500.918 333.567C517.436 319.155 533.954 303.635 547.892 285.897C561.829 268.714 574.734 249.868 586.606 230.468C594.349 217.719 601.06 212.73 608.802 212.73C614.997 212.73 621.707 215.502 629.966 220.49C648.033 230.468 659.906 246.542 669.197 266.497C679.005 286.452 687.78 306.406 695.007 328.024C701.201 346.87 704.814 365.716 705.847 385.671C706.879 403.408 706.879 421.146 707.912 438.883C708.428 448.306 709.46 457.73 712.041 467.153C716.171 485.444 728.043 494.867 743.529 497.085C750.756 498.193 758.499 499.302 765.725 499.302C781.727 499.302 797.729 495.422 812.183 485.999C828.701 474.913 841.09 459.947 851.413 441.655C865.351 416.157 873.093 387.888 875.674 357.956C877.223 339.664 877.739 321.372 883.934 303.635C888.579 289.223 894.774 276.474 907.162 268.714C911.292 266.497 914.905 264.28 919.551 263.171C921.099 262.617 922.648 262.617 924.197 262.617C931.94 262.617 937.618 267.051 940.715 275.92C944.844 287.006 946.393 299.201 948.458 310.841C952.071 334.676 956.717 357.956 967.041 379.019C974.784 395.094 983.559 410.06 994.915 422.809C1007.82 438.329 1022.27 451.632 1036.21 465.49C1050.15 479.347 1062.54 495.422 1074.41 511.496C1088.86 532.005 1104.35 551.96 1120.87 569.698C1130.16 579.675 1139.97 589.098 1149.77 598.521C1151.32 599.63 1152.87 602.401 1154.94 602.401C1155.45 602.401 1155.97 602.401 1157 601.847C1157 566.372 1157 530.897 1157 495.976C1152.35 487.107 1145.64 481.01 1138.42 475.467C1124.48 464.381 1109.51 455.512 1094.54 447.198C1074.93 436.666 1055.31 427.243 1037.24 413.94C1012.47 396.203 993.883 372.922 985.624 340.219C983.043 330.241 981.494 320.264 981.494 309.732C981.494 298.092 980.978 285.897 983.559 274.257C987.172 253.194 997.496 239.336 1014.53 231.022C1026.4 224.925 1039.82 221.599 1053.25 217.719C1072.34 211.622 1091.44 204.416 1109.51 193.884C1134.29 179.472 1147.19 156.192 1151.32 125.706C1153.9 104.642 1150.81 84.6875 1141.51 65.8414C1135.32 53.0926 1125 45.8867 1113.64 40.3438C1102.28 34.8008 1089.89 32.0293 1078.02 28.1492C1070.28 25.932 1063.05 23.7149 1055.31 20.3891C1047.05 16.509 1040.86 9.85743 1035.69 2.09727C1034.15 -0.11992 1032.6 -2.33711 1030.53 -4C1016.6 -4 1002.66 -4 989.237 -4C986.656 -1.22851 986.656 2.65157 986.14 6.53165C985.108 15.4004 983.559 23.7149 980.978 32.0293C978.397 39.7895 973.751 44.2239 967.041 45.8867C958.265 48.6582 950.006 49.2125 941.231 50.3211C927.81 51.984 914.389 53.0926 901.484 54.2012C897.355 54.7555 892.709 54.7555 888.579 54.7555C866.899 54.7555 846.768 49.7668 828.701 33.1379C819.409 24.2692 812.699 13.7375 807.021 1.54297C804.956 -0.11992 803.924 -2.33711 801.343 -4C786.889 -4 772.436 -4 757.982 -4C755.918 -1.78281 756.434 0.434377 757.466 2.65157C761.596 14.8461 767.274 27.0406 775.017 37.018C795.665 61.9614 819.409 80.2532 848.832 88.5676C856.059 90.7848 863.286 91.3391 871.029 91.3391C872.577 91.3391 874.126 91.3391 875.674 91.3391C881.353 91.3391 887.547 91.3391 893.225 91.3391C899.936 91.3391 906.646 91.3391 913.357 92.4477C923.164 94.1106 932.456 96.3278 939.166 105.751C941.747 109.077 943.812 112.957 944.844 117.391C951.039 147.323 946.909 182.798 919.035 203.861C908.711 211.622 898.387 218.827 888.579 227.696C866.899 246.542 854.511 272.04 849.349 302.526C847.284 316.384 846.768 330.241 846.251 344.099C845.735 362.945 844.703 381.791 839.025 399.528C832.83 418.929 824.055 436.112 809.086 448.306C799.794 456.067 789.986 459.947 779.146 459.947C776.049 459.947 772.436 459.392 769.339 458.838C755.918 455.512 747.142 445.535 741.98 431.678C737.851 420.592 736.302 408.951 735.786 397.311C733.721 362.39 730.108 328.024 723.914 293.103C721.333 276.474 719.784 259.845 718.752 243.217C716.687 217.165 709.46 193.33 693.974 173.375C686.232 163.952 677.972 155.083 669.713 146.215C658.873 133.466 651.647 119.054 647.517 101.871C643.904 87.459 641.323 72.493 637.709 58.0813C632.547 38.6809 625.837 20.3891 619.643 0.988675C618.61 -1.22851 617.062 -2.89141 614.997 -4C585.058 -4 554.602 -4 524.663 -4Z" fill="#5200FF"/>
</g>
<defs>
<clipPath id="clip0_3_2">
<rect width="1152" height="4760" fill="white"/>
</clipPath>
</defs>
</svg>
